<?xml version="1.0" standalone="no"?>
<!DOCTYPE svg PUBLIC "-//W3C//DTD SVG 20010904//EN"
 "http://www.w3.org/TR/2001/REC-SVG-20010904/DTD/svg10.dtd">
<svg version="1.0" xmlns="http://www.w3.org/2000/svg"
 width="400.000000pt" height="258.000000pt" viewBox="0 0 400.000000 258.000000"
 preserveAspectRatio="xMidYMid meet">

<g transform="translate(0.000000,258.000000) scale(0.100000,-0.100000)"
fill="#000000" stroke="none">
<path d="M2970 2135 c-129 -69 -260 -135 -290 -146 -68 -26 -235 -64 -320 -74
l-65 -7 130 131 c121 122 157 165 89 106 -45 -40 -214 -151 -295 -194 -41 -22
-141 -63 -224 -92 -281 -98 -496 -190 -780 -334 -222 -113 -296 -158 -435
-266 -99 -76 -387 -358 -481 -469 l-54 -65 100 86 c55 47 136 113 180 146 95
72 320 223 332 223 4 0 23 -28 40 -63 91 -174 252 -303 450 -359 99 -28 266
-30 363 -5 264 69 465 273 531 536 28 109 23 291 -9 391 -12 35 -20 65 -18 67
1 2 50 10 107 18 139 20 379 30 511 20 l108 -7 -6 -26 c-14 -56 -87 -235 -134
-328 -121 -236 -296 -442 -500 -586 -233 -165 -393 -217 -722 -234 -265 -13
-634 54 -907 165 -41 17 -76 29 -78 27 -6 -6 91 -65 159 -95 180 -82 540 -151
787 -151 90 0 266 21 461 54 l138 24 137 -34 c76 -19 139 -33 141 -32 2 2 -42
28 -96 58 -55 30 -100 58 -100 62 0 3 22 22 49 42 l49 36 153 1 154 1 -108 23
c-59 12 -109 24 -112 26 -2 3 31 32 73 66 146 115 209 182 360 381 171 225
140 204 312 218 l85 7 -65 17 c-81 22 -120 37 -120 47 1 5 33 62 73 128 l73
120 145 6 c123 4 164 10 284 42 77 20 154 41 170 46 20 6 -45 10 -205 10 -266
1 -319 8 -474 58 -170 54 -167 36 -25 179 68 68 122 124 119 124 -3 -1 -111
-57 -240 -125z m-840 -483 c33 -104 37 -229 12 -330 -33 -131 -75 -205 -167
-298 -126 -126 -263 -184 -438 -184 -173 0 -316 59 -437 180 -84 84 -160 210
-137 228 19 15 309 174 311 170 1 -2 7 -25 14 -53 29 -115 122 -203 223 -213
218 -21 358 219 239 411 -17 27 -30 50 -30 52 0 12 367 116 382 108 4 -2 17
-34 28 -71z"/>
<path d="M2453 2143 c9 -2 23 -2 30 0 6 3 -1 5 -18 5 -16 0 -22 -2 -12 -5z"/>
<path d="M2180 2109 c-371 -54 -636 -101 -767 -135 -233 -59 -642 -205 -651
-233 -3 -10 3 -12 29 -6 30 6 6 -21 -201 -231 -254 -257 -250 -255 64 31 114
105 217 198 229 207 12 9 157 62 322 117 316 105 427 131 1010 236 110 20 205
38 210 40 28 10 -71 0 -245 -26z"/>
</g>
</svg>
